<?xml version="1.0" encoding="UTF-8"?>
<svg id="Warstwa_1" data-name="Warstwa 1" xmlns="http://www.w3.org/2000/svg" viewBox="0 0 1021.71 1033.83">
  <defs>
    <style>
      .cls-1 {
        fill: #d3ac74;
      }

      .cls-2 {
        fill: #f1f1f1;
      }
    </style>
  </defs>
  <path class="cls-1" d="M537.52,197.5c17.52,3.74,31.24,20,32.03,37.9.48,9.07.19,18.32.2,27.43,8.11,2.08,17.47,5.35,24.76,9.53l14.02-13.44c4.47-4.33,8.35-8.68,13.66-11.79,17.94-10.5,37.91-4.36,51.28,10.32,4.06,4.46,9.69,8.91,13.93,13.39,11.48,10.97,20.76,20.35,20.22,37.38-.45,14.08-7.04,21.32-16.52,30.8-4.39,4.34-8.84,8.62-13.35,12.83-1.05.98-2.35,2.2-3.47,3.09,4.04,6.73,9.24,18.18,11.85,25.62l18.24-.05c15.17-.03,25.06.38,36.95,11.71,12.8,12.21,12.25,27.91,11.88,44.39-.41,18.49,2.95,35.05-11.66,49.13-12.16,11.72-20.79,12.18-36.58,12.2l-19.03-.02c-2.56,9.84-6.35,16.61-10.41,25.53,14.3,16.71,34.52,25.67,32.09,50.88-1.73,18.02-14.32,26.47-26.12,38.36-12.98,13.07-22.77,25.35-43.09,23.55-13.93-1.24-20.88-8.18-30.31-17.53-4.23-4.16-9.08-8.42-13.27-12.69-8.91,4.42-15.27,6.81-24.97,9.27l-.03,17.34c-.03,9.41.28,16.59-4.02,25.31-8.52,17.29-23.33,23.84-41.81,23.82l-19.83-.06c-9.96.03-19.01.71-28.24-3.84-18.2-8.99-23.92-22.51-23.88-41.73l.07-21.23c-7.53-1.72-17.45-5.62-24.58-8.8l-.37.28c-17.57,13.64-26.32,33.29-52.8,29.58-15.07-2.11-22.89-11.66-32.73-22.04,11.57-6.11,22.42-12.63,34.27-18.57.71.57,1.89,1.76,2.87,1.65,3.94-.43,29.96-28.29,36.8-32.22,3.07-1.76,6.54-2.71,10.08-2.76,7.92-.12,12.74,4.5,19.24,8.28,3.26,1.89,5.05,2.45,8.35,3.84,6.71,2.84,13.83,3.06,20.3,5.98,2.94,1.33,6.74,3.87,8.98,6.16,8.75,8.97,8.92,18.64,8.73,30.36.01,6.25-.11,12.53-.12,18.78,0,3.1.29,7.84,4.28,8.12,3.57.25,7.15.16,10.72.16,6.89.05,13.78.03,20.67-.06,5.05-3.05,3.33-8.62,3.48-13.73.3-9.94-1.16-20.55,1.13-30.29.94-4.02,3.28-8,5.83-11.19,9.08-11.52,20.46-9.91,33.02-14.52,6.62-2.43,10.59-5.44,16.33-9.08,5.59-3.55,15.33-3.52,20.79.13,3.05,2.03,9.18,8.2,12.2,11.04l15.55,14.5c2.04,1.92,5.61,5.8,8.09,6.47,2.77-1.27,21.1-20,24.25-23.32.7-.73.8-2.47.15-3.45-1.75-2.68-4.86-5.53-7.17-7.86l-15.51-15.8c-5.4-5.41-11.45-9.72-13.18-17.49-2.22-9.96,3.24-15.83,8.18-23.45,1.84-2.9,3.48-5.93,4.88-9.07,3.42-7.62,3.64-16.88,8.21-23.31,8.94-12.59,18.52-13.25,32.15-13.27,5.31-.02,10.62,0,15.93.05,5.45.06,14.62,1.83,14.22-6.04-.52-10.36.82-21.96-.41-32.2-.5-4.17-10.87-3.01-13.98-3.15-8.53-.38-18.65.85-27.13-.32-3.92-.55-7.7-1.87-11.11-3.89-14.55-8.48-13.18-21.89-19.2-35.28-3.41-7.2-9.17-12.29-11.32-20.15-4.02-14.67,7.44-22.38,16.7-31.55l11.72-11.8c1.38-1.4,9.26-8.79,7.5-10.39-3.38-3.07-22.62-23.89-25.34-24.55-4.01.91-26.45,25.31-31.41,29.39-17.05,14.03-25.01.94-40.72-5.75-8.32-3.54-18.53-3.62-26.34-8.84-13.4-8.96-13.87-18.65-13.89-33.33v-17.31c.08-9.82-.92-11-10.98-10.65-1.92.07-4.1.04-6.03.07l-.82-23.77c-.42-4.23.79-10.3.63-14.39,5.71-.14,17.1-.11,24.28,1.42Z"/>
  <path class="cls-2" d="M452.14,263.13l-.06-17.37c-.04-14.4.69-25.85,11.7-36.7,14.44-14.24,26.92-13.12,45.15-13.07,1.27.06,4.33.1,4.33.1,0,0,.17,10.19.17,14.42v23.74c-5.05.11-10.18.04-15.25-.01-7.09-.08-7.04,3.66-7.03,9.4l.07,18.09c.03,14.77-1.11,26.36-15.01,34.69-7.48,4.48-16.25,4.36-24.26,7.42-3.2,1.22-6.33,2.86-9.24,4.66-5.11,3.15-9.76,7.21-16,7.65-6.17.44-10.94-1.91-15.42-5.94-7.3-6.55-14.34-13.44-21.55-20.1-2.68-2.48-5.27-5.24-8.14-7.49-.83-.65-2.08-1.68-3.19-1.72-1.1-.04-22.47,21.67-24.61,24.31-.4.49-.73.87-.92,1.48.73,3.08,4.66,6.2,7.02,8.44l16.63,15.76c3.37,3.21,8.97,7.92,11.47,11.46,4.3,6.26,4.16,15.44-.06,21.72-3.88,5.77-7.38,10.82-10.06,17.31-2.51,6.08-3.3,12.08-5.25,18.19-2.81,8.8-10.5,16.23-19.58,18.22-4.63,1.06-9.05.77-13.81.87-9.61.19-19.53-.36-29.11.28-2.15.32-3.64,2.16-3.66,4.22-.11,9.59.01,19.16.04,28.75,0,3.01-.5,6.39,2.95,7.64,3.11,1.13,7.27.75,10.59.71,5.83-.07,11.67-.1,17.5-.09,14.25-.01,26.48.82,33.99,16.25,3.15,6.48,3.08,14.51,6.34,21.04,6.09,14.74,21.02,23.5,8.92,40.09-3.97,5.44-33.41,31.54-32.97,34.91,1.18,1.86,5,5.56,6.7,7.32,5.07,5.25,10.2,10.44,15.38,15.58-11.85,5.94-22.7,12.45-34.27,18.57-12.75-12.93-28.01-22.78-27.58-42.97.34-16.31,6.41-22.17,17.39-32.72,5.15-4.9,10.26-9.84,15.32-14.83-4.35-8.28-7.89-16.28-10.1-25.42-20.1-.37-40.99,3.82-56.34-12.15-11.83-12.31-12.02-22.36-11.94-38.28.03-6.21.02-12.41-.02-18.62-.04-14.24.72-25.42,11.63-36.26,11.95-11.88,22.83-12.49,38.43-12.31l17.82.15c2.64-9.36,5.57-16.49,10.07-25.03-5.18-4.98-10.29-10.04-15.31-15.18-10.26-10.55-16.2-16.98-16.75-32.61-.72-20.47,12.37-29.18,25.51-42.14,11.79-11.63,20.75-23.8,39.03-23.69,16.65.1,23.18,6.27,34.55,16.84,4.81,4.43,9.57,8.91,14.27,13.46,7.84-3.86,16.06-6.89,24.53-9.05Z"/>
  <path class="cls-2" d="M600.77,417.21l-10.49-17.29-11.42-18.99c-4.91-8.28-9.77-17.9-17.41-23.95-4.48-3.55-9.71-6.04-15.29-7.29-7-1.51-20.22-1.05-27.74-1.04h-36.49c-11.54.82-22.55,5.86-28.91,15.78-3.15,4.9-6.14,10-9.12,15.01l-15.69,25.98-8.31,13.63c-4.63,7.58-7.7,12.56-7.05,21.84.56,8.03,3.81,12.59,7.84,19.13,2.49,4.06,4.95,8.15,7.38,12.24,5.56,9.29,11.17,18.55,16.84,27.77,4.26,6.92,8.43,14.99,14.48,20.4,10.74,9.59,24.36,9.47,37.86,9.23,14.47-.24,29.11.37,43.56-.33,20.37-2.18,25.94-13.07,35.51-28.77,5.32-8.56,10.55-17.17,15.7-25.84,4.87-8.09,10.78-16.46,14.7-24.91,5.85-12.59.33-22.22-5.95-32.61ZM562.66,452.22l-14.06,23.15c-1.69,2.77-8.59,14.69-9.92,16.3l-55.46.04c-2.47-4.98-7.37-12.51-10.31-17.43-7.14-11.89-14.72-23.69-21.59-35.75l21.58-35.75c2.06-3.4,8.41-14.21,10.7-16.81l54.86-.1c2.55,4.76,6.07,10.28,8.89,15.03,7.62,12.76,15.31,25.48,23.09,38.15-2.12,4.1-5.33,9.11-7.78,13.17Z"/>
  <g>
    <path class="cls-1" d="M221.89,740.14l4.71,7.44-37.82,60.14,35.71-.25v20.46h-65.1l-4.09-8.18,37.94-59.02h-35.21v-20.58h63.86Z"/>
    <path class="cls-1" d="M257.98,774.61h35.59v19.22h-35.59v13.14h38.69v20.96h-61.13v-87.79h61.13v20.83h-38.69v13.64Z"/>
    <path class="cls-1" d="M363.13,781.18c12.03,6.08,13.52,17.36,12.4,24.05-2.23,14.13-11.78,22.69-31.25,22.69h-35.83v-87.79h35.21c16.74,0,29.01,10.04,28.52,26.78-.12,3.97-2.73,11.04-9.05,14.26ZM343.66,774.48c10.79,0,11.16-15.62,0-15.62h-12.9v15.62h12.9ZM343.66,808.46c13.39,0,13.14-17.98,0-17.98h-12.9v17.98h12.9Z"/>
    <path class="cls-1" d="M458.6,827.92h-23.81l-5.7-17.61h-23.43l-5.46,17.61h-23.81l30.63-87.79h20.21l31.37,87.79ZM423.76,790.6l-6.08-25.67h-.62l-6.45,25.67h13.14Z"/>
    <path class="cls-1" d="M495.56,761.09v66.83h-22.44v-66.83h-23.31v-21.08h69.06v21.08h-23.31Z"/>
    <path class="cls-1" d="M573.68,740.14h27.65l-34.72,42.41,34.59,45.38h-28.15l-22.44-31.37-.74.99v30.38h-22.32v-87.79h22.32v32.49l23.81-32.49Z"/>
    <path class="cls-1" d="M599.6,769.03c0-20.21,18.1-30.13,36.33-30.13s36.45,10.04,36.45,30.13v30.01c0,20.09-18.1,30.13-36.33,30.13s-36.45-10.04-36.45-30.13v-30.01ZM621.79,799.03c0,6.45,7.19,9.55,14.26,9.55s14.13-3.22,14.13-9.55v-30.01c0-6.82-7.32-9.92-14.51-9.92s-13.89,3.47-13.89,9.92v30.01Z"/>
    <path class="cls-1" d="M765.88,740.14h22.94l-25.29,87.79h-20.58l-7.81-24.3-3.1-20.09h-.37l-3.35,19.96-6.94,24.43h-20.58l-25.42-87.79h23.06l10.42,42.03,2.23,18.6h.62l2.11-18.47,9.8-30.75h16.86l9.05,30.87,2.85,18.35h.37l2.48-18.35,10.66-42.28Z"/>
    <path class="cls-1" d="M791.92,769.03c0-20.21,18.1-30.13,36.33-30.13s36.45,10.04,36.45,30.13v30.01c0,20.09-18.1,30.13-36.33,30.13s-36.45-10.04-36.45-30.13v-30.01ZM814.12,799.03c0,6.45,7.19,9.55,14.26,9.55s14.13-3.22,14.13-9.55v-30.01c0-6.82-7.32-9.92-14.51-9.92s-13.89,3.47-13.89,9.92v30.01Z"/>
  </g>
</svg>