<?xml version="1.0" encoding="UTF-8"?>
<svg id="Warstwa_1" data-name="Warstwa 1" xmlns="http://www.w3.org/2000/svg" viewBox="0 0 1021.71 1033.83">
  <defs>
    <style>
      .cls-1 {
        fill: #d3ac74;
      }

      .cls-2 {
        fill: #f1f1f1;
      }
    </style>
  </defs>
  <path class="cls-1" d="M142.55,356.85c7.55,1.61,13.46,8.62,13.8,16.33.21,3.91.08,7.89.09,11.82,3.5.9,7.53,2.3,10.67,4.1l6.04-5.79c1.92-1.86,3.6-3.74,5.89-5.08,7.73-4.53,16.33-1.88,22.09,4.45,1.75,1.92,4.18,3.84,6,5.77,4.94,4.73,8.94,8.77,8.71,16.11-.19,6.07-3.04,9.19-7.12,13.27-1.89,1.87-3.81,3.71-5.75,5.53-.45.42-1.01.95-1.49,1.33,1.74,2.9,3.98,7.83,5.11,11.04l7.86-.02c6.54-.01,10.8.16,15.92,5.05,5.52,5.26,5.28,12.03,5.12,19.12-.18,7.97,1.27,15.1-5.03,21.17-5.24,5.05-8.96,5.25-15.76,5.26h-8.2c-1.1,4.23-2.73,7.15-4.48,10.99,6.16,7.2,14.87,11.06,13.83,21.92-.75,7.76-6.17,11.4-11.26,16.53-5.59,5.63-9.81,10.92-18.56,10.14-6-.53-9-3.52-13.06-7.55-1.82-1.79-3.91-3.63-5.72-5.47-3.84,1.9-6.58,2.93-10.76,3.99v7.47c-.02,4.05.11,7.15-1.74,10.9-3.67,7.45-10.05,10.27-18.01,10.26l-8.54-.02c-4.29.01-8.19.31-12.17-1.66-7.84-3.87-10.31-9.7-10.29-17.98l.03-9.15c-3.24-.74-7.52-2.42-10.59-3.79l-.16.12c-7.57,5.88-11.34,14.34-22.75,12.75-6.49-.91-9.86-5.02-14.1-9.5,4.99-2.63,9.66-5.44,14.77-8,.3.25.82.76,1.24.71,1.7-.18,12.91-12.19,15.85-13.88,1.32-.76,2.82-1.17,4.34-1.19,3.41-.05,5.49,1.94,8.29,3.57,1.41.82,2.18,1.05,3.6,1.66,2.89,1.22,5.96,1.32,8.75,2.58,1.27.57,2.9,1.67,3.87,2.65,3.77,3.86,3.84,8.03,3.76,13.08,0,2.69-.05,5.4-.05,8.09,0,1.34.12,3.38,1.85,3.5,1.54.11,3.08.07,4.62.07,2.97.02,5.94.01,8.91-.03,2.18-1.31,1.43-3.71,1.5-5.91.13-4.28-.5-8.85.49-13.05.41-1.73,1.41-3.45,2.51-4.82,3.91-4.96,8.82-4.27,14.23-6.26,2.85-1.05,4.56-2.35,7.03-3.91,2.41-1.53,6.6-1.51,8.96.05,1.31.88,3.96,3.53,5.25,4.76l6.7,6.25c.88.83,2.42,2.5,3.48,2.79,1.19-.55,9.09-8.62,10.45-10.05.3-.32.34-1.06.07-1.49-.75-1.16-2.1-2.38-3.09-3.39l-6.68-6.81c-2.33-2.33-4.93-4.19-5.68-7.54-.96-4.29,1.39-6.82,3.52-10.11.79-1.25,1.5-2.56,2.1-3.91,1.47-3.28,1.57-7.27,3.54-10.04,3.85-5.42,7.98-5.71,13.85-5.72,2.29,0,4.58,0,6.86.02,2.35.03,6.3.79,6.13-2.6-.22-4.46.35-9.46-.18-13.87-.22-1.8-4.68-1.29-6.02-1.36-3.68-.17-8.03.37-11.69-.14-1.69-.24-3.32-.81-4.78-1.68-6.27-3.65-5.68-9.43-8.27-15.2-1.47-3.1-3.95-5.3-4.88-8.68-1.73-6.32,3.2-9.64,7.2-13.59l5.05-5.08c.6-.6,3.99-3.79,3.23-4.47-1.46-1.32-9.75-10.29-10.92-10.58-1.73.39-11.4,10.9-13.53,12.66-7.35,6.05-10.77.41-17.54-2.48-3.58-1.53-7.98-1.56-11.35-3.81-5.77-3.86-5.97-8.03-5.98-14.36v-7.46c.03-4.23-.4-4.74-4.73-4.59-.83.03-1.76.02-2.6.03l-.35-10.24c-.18-1.82.34-4.44.27-6.2,2.46-.06,7.37-.05,10.46.61Z"/>
  <path class="cls-2" d="M105.76,385.13l-.03-7.48c-.02-6.2.3-11.14,5.04-15.81,6.22-6.13,11.6-5.65,19.45-5.63.55.02,1.86.04,1.86.04,0,0,.07,4.39.07,6.21v10.23c-2.18.05-4.39.02-6.57,0-3.06-.03-3.03,1.58-3.03,4.05l.03,7.79c.01,6.36-.48,11.36-6.47,14.95-3.22,1.93-7,1.88-10.45,3.2-1.38.53-2.73,1.23-3.98,2.01-2.2,1.36-4.2,3.1-6.89,3.3-2.66.19-4.71-.82-6.64-2.56-3.15-2.82-6.18-5.79-9.28-8.66-1.15-1.07-2.27-2.26-3.51-3.23-.36-.28-.9-.72-1.37-.74-.48-.02-9.68,9.34-10.6,10.48-.17.21-.32.37-.4.64.32,1.33,2.01,2.67,3.03,3.64l7.16,6.79c1.45,1.38,3.87,3.41,4.94,4.94,1.85,2.7,1.79,6.65-.03,9.36-1.67,2.49-3.18,4.66-4.33,7.46-1.08,2.62-1.42,5.21-2.26,7.84-1.21,3.79-4.52,6.99-8.44,7.85-1.99.46-3.9.33-5.95.37-4.14.08-8.41-.15-12.54.12-.93.14-1.57.93-1.58,1.82-.05,4.13,0,8.25.02,12.38,0,1.3-.21,2.75,1.27,3.29,1.34.49,3.13.32,4.56.31,2.51-.03,5.03-.04,7.54-.04,6.14,0,11.41.35,14.64,7,1.36,2.79,1.33,6.25,2.73,9.07,2.62,6.35,9.06,10.13,3.84,17.27-1.71,2.35-14.39,13.59-14.2,15.04.51.8,2.15,2.4,2.89,3.15,2.19,2.26,4.39,4.5,6.63,6.71-5.11,2.56-9.78,5.37-14.77,8-5.49-5.57-12.07-9.81-11.88-18.51.15-7.03,2.76-9.55,7.49-14.1,2.22-2.11,4.42-4.24,6.6-6.39-1.87-3.57-3.4-7.02-4.35-10.95-8.66-.16-17.66,1.65-24.28-5.23-5.1-5.3-5.18-9.64-5.14-16.49.01-2.67,0-5.35,0-8.02-.02-6.13.31-10.95,5.01-15.62,5.15-5.12,9.84-5.38,16.56-5.3l7.68.06c1.14-4.03,2.4-7.1,4.34-10.79-2.23-2.15-4.43-4.33-6.6-6.54-4.42-4.55-6.98-7.32-7.22-14.05-.31-8.82,5.33-12.57,10.99-18.15,5.08-5.01,8.94-10.25,16.82-10.21,7.17.04,9.99,2.7,14.88,7.26,2.07,1.91,4.12,3.84,6.15,5.8,3.38-1.66,6.92-2.97,10.57-3.9Z"/>
  <path class="cls-2" d="M169.8,451.51l-4.52-7.45-4.92-8.18c-2.11-3.57-4.21-7.71-7.5-10.32-1.93-1.53-4.18-2.6-6.59-3.14-3.02-.65-8.71-.45-11.95-.45h-15.72c-4.97.35-9.72,2.53-12.46,6.8-1.36,2.11-2.64,4.31-3.93,6.47l-6.76,11.19-3.58,5.87c-2,3.27-3.32,5.41-3.04,9.41.24,3.46,1.64,5.42,3.38,8.24,1.07,1.75,2.13,3.51,3.18,5.28,2.4,4,4.81,7.99,7.25,11.97,1.84,2.98,3.63,6.46,6.24,8.79,4.63,4.13,10.5,4.08,16.31,3.98,6.23-.1,12.54.16,18.77-.14,8.78-.94,11.18-5.63,15.3-12.39,2.29-3.69,4.55-7.4,6.76-11.13,2.1-3.48,4.64-7.09,6.33-10.73,2.52-5.42.14-9.57-2.56-14.05ZM153.38,466.6l-6.06,9.98c-.73,1.19-3.7,6.33-4.27,7.02l-23.89.02c-1.06-2.14-3.17-5.39-4.44-7.51-3.08-5.12-6.34-10.21-9.3-15.4l9.3-15.4c.89-1.46,3.62-6.12,4.61-7.24l23.64-.04c1.1,2.05,2.61,4.43,3.83,6.48,3.28,5.5,6.6,10.98,9.95,16.44-.91,1.77-2.3,3.93-3.35,5.67Z"/>
  <g>
    <path class="cls-1" d="M356.63,417.07l4.71,7.44-37.82,60.14,35.71-.25v20.46h-65.1l-4.09-8.18,37.94-59.02h-35.21v-20.58h63.86Z"/>
    <path class="cls-1" d="M392.72,451.54h35.59v19.22h-35.59v13.14h38.69v20.96h-61.13v-87.79h61.13v20.83h-38.69v13.64Z"/>
    <path class="cls-1" d="M497.87,458.12c12.03,6.08,13.52,17.36,12.4,24.05-2.23,14.13-11.78,22.69-31.25,22.69h-35.83v-87.79h35.21c16.74,0,29.01,10.04,28.52,26.78-.12,3.97-2.73,11.04-9.05,14.26ZM478.4,451.42c10.79,0,11.16-15.62,0-15.62h-12.9v15.62h12.9ZM478.4,485.39c13.39,0,13.14-17.98,0-17.98h-12.9v17.98h12.9Z"/>
    <path class="cls-1" d="M593.35,504.86h-23.81l-5.7-17.61h-23.43l-5.46,17.61h-23.81l30.63-87.79h20.21l31.37,87.79ZM558.5,467.54l-6.08-25.67h-.62l-6.45,25.67h13.14Z"/>
    <path class="cls-1" d="M630.3,438.03v66.83h-22.44v-66.83h-23.31v-21.08h69.06v21.08h-23.31Z"/>
    <path class="cls-1" d="M708.42,417.07h27.65l-34.72,42.41,34.59,45.38h-28.15l-22.44-31.37-.74.99v30.38h-22.32v-87.79h22.32v32.49l23.81-32.49Z"/>
    <path class="cls-1" d="M734.34,445.97c0-20.21,18.1-30.13,36.33-30.13s36.45,10.04,36.45,30.13v30.01c0,20.09-18.1,30.13-36.33,30.13s-36.45-10.04-36.45-30.13v-30.01ZM756.53,475.97c0,6.45,7.19,9.55,14.26,9.55s14.13-3.22,14.13-9.55v-30.01c0-6.82-7.32-9.92-14.51-9.92s-13.89,3.47-13.89,9.92v30.01Z"/>
    <path class="cls-1" d="M900.62,417.07h22.94l-25.29,87.79h-20.58l-7.81-24.3-3.1-20.09h-.37l-3.35,19.96-6.94,24.43h-20.58l-25.42-87.79h23.06l10.42,42.03,2.23,18.6h.62l2.11-18.47,9.8-30.75h16.86l9.05,30.87,2.85,18.35h.37l2.48-18.35,10.66-42.28Z"/>
    <path class="cls-1" d="M926.66,445.97c0-20.21,18.1-30.13,36.33-30.13s36.45,10.04,36.45,30.13v30.01c0,20.09-18.1,30.13-36.33,30.13s-36.45-10.04-36.45-30.13v-30.01ZM948.86,475.97c0,6.45,7.19,9.55,14.26,9.55s14.13-3.22,14.13-9.55v-30.01c0-6.82-7.32-9.92-14.51-9.92s-13.89,3.47-13.89,9.92v30.01Z"/>
  </g>
</svg>